PathFileType	4	(X/Y/Z)	Patient4_TMGait_0pt8_01_left_37.trc.trc
DataRate	CameraRate	NumFrames	NumMarkers	Units	OrigDataRate	OrigDataStartFrame	OrigNumFrames
85.889570552147	85.889570552147	4	33	mm	85.889570552147	53	       141
Frame#	Time	Sacral			L.Shoulder			Chest			R.Shoulder			Neck			R.ASIS			L.ASIS			R.Thigh.Superior			R.Thigh.Lateral			R.Thigh.Inferior			R.Patella			L.Thigh.Superior			L.Thigh.Lateral			L.Thigh.Inferior			L.Patella			L.Shank.Superior			L.Shank.Lateral			L.Shank.Inferior			R.Shank.Superior			R.Shank.Lateral			R.Shank.Inferior			R.Heel			R.Midfoot.Superior			R.Midfoot.Lateral			R.Toe			L.Heel			L.Midfoot.Lateral			L.Midfoot.Superior			L.Toe			L.Elbow			L.Wrist			R.Elbow			R.Wrist			
		X1	Y1	Z1	X2	Y2	Z2	X3	Y3	Z3	X4	Y4	Z4	X5	Y5	Z5	X6	Y6	Z6	X7	Y7	Z7	X8	Y8	Z8	X9	Y9	Z9	X10	Y10	Z10	X11	Y11	Z11	X12	Y12	Z12	X13	Y13	Z13	X14	Y14	Z14	X15	Y15	Z15	X16	Y16	Z16	X17	Y17	Z17	X18	Y18	Z18	X19	Y19	Z19	X20	Y20	Z20	X21	Y21	Z21	X22	Y22	Z22	X23	Y23	Z23	X24	Y24	Z24	X25	Y25	Z25	X26	Y26	Z26	X27	Y27	Z27	X28	Y28	Z28	X29	Y29	Z29	X30	Y30	Z30	X31	Y31	Z31	X32	Y32	Z32	X33	Y33	Z33	

53	41.485428571429	840.310578072998	1012.222263344075	427.430995691455	1020.034026529828	1443.674627241847	262.509900238998	1122.719804824500	1368.842262539515	421.778330473283	1037.922951475751	1435.194914298081	598.690802326373	1004.093110529306	1499.176908043874	421.273579597132	1064.618683117018	947.513995862706	546.782547514676	1057.732681309044	965.701235110149	273.446118690970	1147.885321770379	779.364226517354	518.639502687783	1110.387679587321	659.277616909041	594.065423023985	1200.673999231315	619.424185356419	514.587154369974	1218.891649565593	504.114996387537	539.270609860100	1103.709005828459	751.314528996561	305.668317300437	1010.554088346612	636.141013918829	250.002146779897	1093.041208328641	557.458324130052	314.966995101135	1091.889953671211	488.407118689760	327.662132450440	1063.533714568389	415.930041606742	321.341262853315	971.427777063821	302.322091759799	274.877251975550	1018.933115927923	192.150045031653	348.855773953413	1135.670700403115	434.119470794697	547.842067083086	1007.920234447147	408.976131312621	602.941386109372	986.904299986746	298.881119040355	559.593936847864	789.281042203863	267.736941465747	520.034163987959	935.448878563918	172.731687186580	573.611388097838	826.024234946486	196.318078720578	597.036907516653	969.787529176569	47.968602209083	603.293045263898	888.608253434672	38.478617045332	396.917016994653	959.217332222124	35.803170285728	313.218901771182	1043.764132491576	96.696876049564	337.824746725323	1170.862944793288	43.633200972057	303.188604193275	1024.647496589653	1106.292005773691	108.421646561343	1208.342657847504	920.151106081482	127.558637368882	1008.562572238370	1079.176597844323	694.561221758805	1192.860822990440	897.222696650447	693.391450576700	
54	41.497071428571	838.890635081768	1012.787393040675	425.500334837916	1021.198237903690	1444.512328839511	261.573025702820	1122.124310563687	1369.141751559284	421.651177046343	1035.866112910793	1435.397165022410	597.805369306000	1003.760711226005	1499.771524359093	420.266969671067	1062.713398359304	948.899785317177	546.579491419152	1057.762604946316	966.472274940617	272.530401681250	1149.193744940143	784.842741911725	517.143972754963	1115.804745312548	663.980485110356	593.089446405056	1206.604686816177	626.419118858159	513.111871261580	1228.467479039483	511.610511300283	538.082015376698	1100.112931243567	750.210648594859	305.388624888844	1005.216397045928	636.335708299519	249.319299135232	1086.086934394090	556.484674532445	314.601935956164	1083.777086925242	487.668615849123	327.364169443323	1055.362203825945	415.661074198144	320.874292637290	962.892085974354	302.362752039177	274.378091071177	1009.891973626209	192.069665060882	348.527894036561	1147.421450896578	439.058852638774	546.576802611859	1020.380737140229	409.416136099300	601.148003824223	1003.330808066503	298.648036976750	557.617310172441	806.370665164300	259.135555178549	517.501097319304	956.945185223433	171.810896148954	571.748030996838	846.538198712397	190.090556849756	594.935235870024	997.259278882811	49.208551210733	601.872848590659	879.187863347107	38.577894480464	396.824665288603	949.842280155737	35.793317010023	313.151586265780	1034.442931651110	96.638113734611	337.666407122072	1161.530167757630	43.424261712900	303.134273660693	1034.134438681722	1108.630728866819	105.591551404977	1229.388716188655	935.182414061794	126.045968526727	1000.120746597196	1079.552221617802	692.886006808075	1166.441074022927	880.377781817692	694.862567058815	
55	41.508714285714	837.511859460167	1013.257599434948	423.692194146717	1022.558021871538	1445.294590772808	260.747099621782	1121.648635028233	1369.324006914046	421.637108036919	1033.923144922870	1435.509496176017	596.993747311253	1003.519020807434	1500.285237318037	419.362187935117	1060.861553334243	950.168851083600	546.411762228585	1057.810589948486	967.169023212446	271.687124531107	1150.206625735628	790.011667847442	515.960674376304	1120.642572031703	668.482821101517	592.315970943277	1211.869715606688	633.069982918398	511.935741650025	1237.177705102337	518.996097555124	537.206861424082	1096.387800922438	749.087178075058	305.265615307338	999.777460549313	636.537383556416	248.654045118849	1078.970565407069	555.517512113676	314.223148940628	1075.510308779414	486.982027015307	326.991866692588	1047.069778418752	415.439382628835	320.360646904147	954.242699026343	302.429498957293	273.860926138520	1000.810909474116	192.026436223210	348.156661998799	1158.677972463892	443.777146770079	545.591036524275	1032.735037383962	409.025008223241	599.745090305467	1020.154725962505	297.670380298829	555.990447301779	824.352198201083	249.017293923044	515.509320537013	979.459545220566	170.152385813155	570.383937806843	868.167567705097	182.613368573712	593.322041178259	1026.104787538816	49.940793364054	600.777612656442	869.777352283520	38.691846706036	396.730294900353	940.473400772591	35.782190150471	313.091175141902	1025.129098706218	96.582040203431	337.489041968806	1152.201436451070	43.201988190572	303.083638251469	1043.291795440758	1111.094120806806	103.137746229037	1249.274133008780	951.126991891598	125.033438902731	992.125671916501	1080.032216678716	691.455142802825	1139.148813165297	865.698524106920	696.056995731784	
56	41.520357142857	836.183721717280	1013.611188756109	422.022844129902	1024.067456298453	1445.975906746828	260.044697534816	1121.291924390856	1369.363257914933	421.728752882789	1032.125115934924	1435.500757176859	596.271795311595	1003.367960389005	1500.683836525206	418.569251947386	1059.082679317258	951.259362393156	546.246097168165	1057.783837501520	967.730745529539	270.927258577213	1150.930681311040	794.739142506604	515.053721460227	1124.840692601654	672.634909584670	591.725620324110	1216.422957005552	639.200537043975	511.058585899030	1244.911610341725	526.094804139587	536.627570829603	1092.566852951877	747.942774433515	305.245990546924	994.263892037964	636.738428993308	247.988993078616	1071.741245443408	554.555325453280	313.801906469918	1067.152532322384	486.346003768801	326.522542721153	1038.703685702429	415.252840076993	319.791411389576	945.511890572460	302.518570295810	273.324138674655	991.705078182672	192.011017523602	347.748146759628	1169.337194794192	448.171515081770	544.879652426688	1044.975241555179	407.782610641053	598.775828876736	1037.323554459924	295.996040662307	554.762821596339	843.310209865424	237.578280729766	514.154622690814	1002.878796683130	167.840555908098	569.546415856339	890.908330327292	174.097401986775	592.283182178938	1056.061431859823	50.302096010504	600.067247030796	860.382357503764	38.821356027125	396.631772268514	931.112552517914	35.771091277435	313.037856502283	1015.825155299194	96.530247149424	337.294779321507	1142.877041298864	42.968188845439	303.034337163823	1052.158994031336	1113.609859115437	101.034599497487	1267.918499360299	967.781131060386	124.485038783324	984.400101947684	1080.589977603153	690.200568063484	1111.323069803476	853.324952003326	696.997606852442	
